<svg width="15" height="17" viewBox="0 0 15 17" fill="none" xmlns="http://www.w3.org/2000/svg">
<path d="M11.2637 1H11.3338C12.0474 1 12.4041 1 12.6926 1.09462C13.267 1.283 13.7175 1.73349 13.9059 2.30789C14.0005 2.59639 14.0005 2.95315 14.0005 3.66667V3.66667" stroke="black" stroke-linecap="round"/>
<path d="M11.2637 12.3333H11.3338C12.0474 12.3333 12.4041 12.3333 12.6926 12.2387C13.267 12.0503 13.7175 11.5998 13.9059 11.0254C14.0005 10.7369 14.0005 10.3802 14.0005 9.66665V9.66665" stroke="black" stroke-linecap="round"/>
<path d="M3.7373 1H3.66713C2.95361 1 2.59685 1 2.30835 1.09462C1.73395 1.283 1.28347 1.73349 1.09508 2.30789C1.00046 2.59639 1.00046 2.95315 1.00046 3.66667V3.66667" stroke="black" stroke-linecap="round"/>
<path d="M3.7373 12.3333H3.66713C2.95361 12.3333 2.59685 12.3333 2.30835 12.2387C1.73395 12.0503 1.28347 11.5998 1.09508 11.0254C1.00046 10.7369 1.00046 10.3802 1.00046 9.66665V9.66665" stroke="black" stroke-linecap="round"/>
<path d="M4.38178 10.674C4.70046 10.0995 5.1574 9.62483 5.70473 9.29589C6.25188 8.96705 6.87091 8.7948 7.49979 8.7948C8.12868 8.7948 8.74771 8.96705 9.29486 9.29589C9.84219 9.62483 10.2991 10.0995 10.6178 10.674" stroke="black" stroke-linecap="round"/>
<circle cx="7.5" cy="4.5" r="2" stroke="black" stroke-linecap="round"/>
</svg>
