<svg width="19" height="19" viewBox="0 0 19 19" fill="none" xmlns="http://www.w3.org/2000/svg">
<mask id="mask0_341_492" style="mask-type:alpha" maskUnits="userSpaceOnUse" x="2" y="2" width="15" height="15">
<path d="M2.375 9.5C2.375 6.57187 2.375 5.10781 3.10466 4.07177C3.36912 3.69627 3.69627 3.36912 4.07177 3.10466C5.10781 2.375 6.57187 2.375 9.5 2.375C12.4281 2.375 13.8922 2.375 14.9282 3.10466C15.3037 3.36912 15.6309 3.69627 15.8953 4.07177C16.625 5.10781 16.625 6.57187 16.625 9.5C16.625 12.4281 16.625 13.8922 15.8953 14.9282C15.6309 15.3037 15.3037 15.6309 14.9282 15.8953C13.8922 16.625 12.4281 16.625 9.5 16.625C6.57187 16.625 5.10781 16.625 4.07177 15.8953C3.69627 15.6309 3.36912 15.3037 3.10466 14.9282C2.375 13.8922 2.375 12.4281 2.375 9.5Z" fill="#273B4A"/>
</mask>
<g mask="url(#mask0_341_492)">
<path d="M4.28283 9.96717L4.1619 10.0881L4.1619 10.0881C3.64466 10.6053 3.38604 10.864 3.18459 11.1522C2.81054 11.6873 2.57318 12.3059 2.49321 12.9539C2.45015 13.3028 2.46937 13.6681 2.50782 14.3986L2.77083 19.3958H16.625V15.6412C16.625 14.859 16.625 14.4678 16.5549 14.0983C16.4393 13.4891 16.1837 12.9151 15.8082 12.4217C15.5804 12.1224 15.2897 11.8607 14.7083 11.3374L14.5384 11.1846L14.5384 11.1846C14.1072 10.7965 13.8916 10.6024 13.6707 10.4861C13.0546 10.1618 12.3141 10.1813 11.7159 10.5376C11.5014 10.6653 11.2963 10.8704 10.886 11.2806C10.5824 11.5842 10.4306 11.736 10.2869 11.8084C9.88123 12.0125 9.38897 11.9177 9.08817 11.5775C8.98156 11.457 8.89486 11.2547 8.72146 10.8501L8.72145 10.8501L8.72145 10.8501C8.33956 9.95897 8.14861 9.51342 7.90451 9.25492C7.31421 8.6298 6.39045 8.4519 5.61021 8.81308C5.28757 8.96244 4.95265 9.29735 4.28283 9.96717L4.28283 9.96717Z" fill="#7E869E" fill-opacity="0.25" stroke="#2F99A5"/>
</g>
<path d="M2.375 9.5C2.375 6.57187 2.375 5.10781 3.10466 4.07177C3.36912 3.69627 3.69627 3.36912 4.07177 3.10466C5.10781 2.375 6.57187 2.375 9.5 2.375V2.375C12.4281 2.375 13.8922 2.375 14.9282 3.10466C15.3037 3.36912 15.6309 3.69627 15.8953 4.07177C16.625 5.10781 16.625 6.57187 16.625 9.5V9.5C16.625 12.4281 16.625 13.8922 15.8953 14.9282C15.6309 15.3037 15.3037 15.6309 14.9282 15.8953C13.8922 16.625 12.4281 16.625 9.5 16.625V16.625C6.57187 16.625 5.10781 16.625 4.07177 15.8953C3.69627 15.6309 3.36912 15.3037 3.10466 14.9282C2.375 13.8922 2.375 12.4281 2.375 9.5V9.5Z" stroke="#2F99A5" stroke-width="1.2"/>
<circle cx="13.0625" cy="5.9375" r="1.1875" fill="#2F99A5"/>
</svg>
